<svg xmlns="http://www.w3.org/2000/svg" width="25" height="25" viewBox="0 0 512 512"><path fill="#fff" d="M406.16 272.064c.752 77.456 72.944 103.184 73.776 103.568-.656 1.744-11.568 36.72-38.096 72.832-22.944 31.184-46.688 62.24-84.16 62.864-36.848.656-48.688-20.336-90.816-20.336-42.112 0-55.264 19.712-90.112 20.992-36.144 1.28-63.696-33.664-86.832-64.768-47.264-63.584-83.36-179.664-34.848-258 24.048-38.912 67.072-63.552 113.792-64.208 35.52-.592 69.072 22.304 90.752 22.304 21.744 0 62.496-27.504 105.312-23.472 17.936.688 68.288 6.72 100.592 50.704-2.544 1.552-60.08 32.656-59.36 97.52zM255.296 118c-4.176-29.424 11.392-60.016 29.184-79.232C304.336 17.12 337.84 1.024 365.504 0c3.536 29.984-9.44 60.08-28.624 81.744-19.216 21.632-50.72 38.48-81.584 36.256z"/></svg>